<svg xmlns="http://www.w3.org/2000/svg" xmlns:xlink="http://www.w3.org/1999/xlink" width="500" zoomAndPan="magnify" viewBox="0 0 375 374.999991" height="500" preserveAspectRatio="xMidYMid meet" version="1.0"><defs><g/><clipPath id="a570f659b5"><path d="M 63.695312 11.625 L 312.222656 11.625 L 312.222656 260.148438 L 63.695312 260.148438 Z M 63.695312 11.625 " clip-rule="nonzero"/></clipPath><clipPath id="e51dff13d4"><path d="M 187.960938 11.625 C 119.332031 11.625 63.695312 67.257812 63.695312 135.886719 C 63.695312 204.515625 119.332031 260.148438 187.960938 260.148438 C 256.585938 260.148438 312.222656 204.515625 312.222656 135.886719 C 312.222656 67.257812 256.585938 11.625 187.960938 11.625 Z M 187.960938 11.625 " clip-rule="nonzero"/></clipPath><clipPath id="5402cf0a99"><path d="M 60 41 L 287 41 L 287 171 L 60 171 Z M 60 41 " clip-rule="nonzero"/></clipPath><clipPath id="e6cf2e6cca"><path d="M 60.671875 151.324219 L 276.816406 41.925781 L 286.296875 60.664062 L 70.15625 170.0625 Z M 60.671875 151.324219 " clip-rule="nonzero"/></clipPath><clipPath id="0dfa70b10d"><path d="M 59.90625 150.886719 L 277.386719 40.8125 L 287.546875 60.886719 L 70.066406 170.960938 Z M 59.90625 150.886719 " clip-rule="nonzero"/></clipPath><clipPath id="d2476d9d8a"><path d="M 50.136719 143.199219 L 296.390625 18.558594 L 317.050781 59.378906 L 70.796875 184.015625 Z M 50.136719 143.199219 " clip-rule="nonzero"/></clipPath><clipPath id="c2e1dcb4d0"><path d="M 238 71 L 279 71 L 279 160 L 238 160 Z M 238 71 " clip-rule="nonzero"/></clipPath><clipPath id="83bb596313"><path d="M 265.15625 159.496094 L 238 75.265625 L 250.847656 71.121094 L 278.003906 155.351562 Z M 265.15625 159.496094 " clip-rule="nonzero"/></clipPath><clipPath id="cee62d6120"><path d="M 265.226562 159.710938 L 237.835938 74.765625 L 251.398438 70.394531 L 278.789062 155.339844 Z M 265.226562 159.710938 " clip-rule="nonzero"/></clipPath><clipPath id="09d42b23f7"><path d="M 270.984375 177.570312 L 236.691406 71.210938 L 254.535156 65.457031 L 288.828125 171.816406 Z M 270.984375 177.570312 " clip-rule="nonzero"/></clipPath><clipPath id="f230f86f3e"><path d="M 60 147 L 100 147 L 100 193 L 60 193 Z M 60 147 " clip-rule="nonzero"/></clipPath><clipPath id="e824d2ca10"><path d="M 72.761719 192.847656 L 60.65625 156.566406 L 86.976562 147.78125 L 99.085938 184.066406 Z M 72.761719 192.847656 " clip-rule="nonzero"/></clipPath><clipPath id="3de04e0f1c"><path d="M 72.351562 193.253906 L 60.003906 156.261719 L 87.039062 147.238281 L 99.386719 184.234375 Z M 72.351562 193.253906 " clip-rule="nonzero"/></clipPath><clipPath id="7315c03ef8"><path d="M 112.421875 313.332031 L 57.816406 149.703125 L 84.851562 140.679688 L 139.457031 304.308594 Z M 112.421875 313.332031 " clip-rule="nonzero"/></clipPath><clipPath id="43f4fd6945"><path d="M 73 138 L 318 138 L 318 199 L 73 199 Z M 73 138 " clip-rule="nonzero"/></clipPath><clipPath id="77a6161e59"><path d="M 73.414062 179.574219 L 314.496094 138.835938 L 317.746094 158.0625 L 76.664062 198.800781 Z M 73.414062 179.574219 " clip-rule="nonzero"/></clipPath><clipPath id="c2bcabe0e2"><path d="M 73.300781 178.898438 L 315.121094 138.03125 L 318.496094 158 L 76.675781 198.863281 Z M 73.300781 178.898438 " clip-rule="nonzero"/></clipPath><clipPath id="21fb6bf51b"><path d="M 71.550781 168.554688 L 320.769531 126.4375 L 327.765625 167.851562 L 78.550781 209.964844 Z M 71.550781 168.554688 " clip-rule="nonzero"/></clipPath><clipPath id="fab4d478fd"><path d="M 37.28125 2.167969 L 337.28125 2.167969 L 337.28125 302.167969 L 37.28125 302.167969 Z M 37.28125 2.167969 " clip-rule="nonzero"/></clipPath></defs><g clip-path="url(#a570f659b5)"><g clip-path="url(#e51dff13d4)"><path fill="#570202" d="M 63.695312 11.625 L 312.222656 11.625 L 312.222656 260.148438 L 63.695312 260.148438 Z M 63.695312 11.625 " fill-opacity="1" fill-rule="nonzero"/></g></g><g clip-path="url(#5402cf0a99)"><g clip-path="url(#e6cf2e6cca)"><g clip-path="url(#0dfa70b10d)"><g clip-path="url(#d2476d9d8a)"><path fill="#ffffff" d="M 50.339844 143.109375 L 296.183594 18.679688 C 303.074219 32.292969 309.964844 45.90625 316.855469 59.519531 C 234.90625 100.996094 152.957031 142.472656 71.011719 183.949219 C 64.121094 170.335938 57.230469 156.722656 50.339844 143.109375 " fill-opacity="1" fill-rule="nonzero"/></g></g></g></g><g clip-path="url(#c2e1dcb4d0)"><g clip-path="url(#83bb596313)"><g clip-path="url(#cee62d6120)"><g clip-path="url(#09d42b23f7)"><path fill="#ffffff" d="M 270.957031 177.464844 L 236.730469 71.316406 C 242.683594 69.398438 248.632812 67.480469 254.585938 65.5625 C 265.992188 100.945312 277.402344 136.328125 288.808594 171.707031 C 282.859375 173.628906 276.90625 175.546875 270.957031 177.464844 " fill-opacity="1" fill-rule="nonzero"/></g></g></g></g><g clip-path="url(#f230f86f3e)"><g clip-path="url(#e824d2ca10)"><g clip-path="url(#3de04e0f1c)"><g clip-path="url(#7315c03ef8)"><path fill="#ffffff" d="M 112.386719 313.195312 L 85.128906 231.519531 L 57.871094 149.839844 C 66.890625 146.832031 75.90625 143.824219 84.921875 140.816406 C 103.09375 195.265625 121.265625 249.71875 139.433594 304.171875 C 130.417969 307.179688 121.402344 310.1875 112.386719 313.195312 " fill-opacity="1" fill-rule="nonzero"/></g></g></g></g><g clip-path="url(#43f4fd6945)"><g clip-path="url(#77a6161e59)"><g clip-path="url(#c2bcabe0e2)"><g clip-path="url(#21fb6bf51b)"><path fill="#ffffff" d="M 71.753906 168.53125 L 196.15625 147.511719 L 320.554688 126.488281 C 322.890625 140.296875 325.222656 154.109375 327.558594 167.921875 C 244.621094 181.9375 161.6875 195.949219 78.753906 209.964844 C 76.421875 196.15625 74.085938 182.34375 71.753906 168.53125 " fill-opacity="1" fill-rule="nonzero"/></g></g></g></g><g clip-path="url(#fab4d478fd)"><path fill="#ffffff" d="M 187.226562 2.167969 C 228.636719 2.167969 266.121094 18.949219 293.253906 46.085938 C 320.394531 73.222656 337.175781 110.707031 337.175781 152.113281 C 337.175781 193.519531 320.394531 231.007812 293.253906 258.144531 C 266.121094 285.28125 228.636719 302.0625 187.226562 302.0625 C 145.820312 302.0625 108.335938 285.28125 81.195312 258.144531 C 54.0625 231.007812 37.28125 193.519531 37.28125 152.113281 C 37.28125 110.707031 54.0625 73.222656 81.195312 46.085938 C 108.335938 18.949219 145.820312 2.167969 187.226562 2.167969 Z M 281.476562 57.867188 C 257.359375 33.746094 224.035156 18.828125 187.226562 18.828125 C 150.421875 18.828125 117.097656 33.746094 92.980469 57.867188 C 68.859375 81.984375 53.941406 115.304688 53.941406 152.113281 C 53.941406 188.921875 68.859375 222.246094 92.980469 246.363281 C 117.097656 270.484375 150.421875 285.402344 187.226562 285.402344 C 224.035156 285.402344 257.359375 270.484375 281.476562 246.363281 C 305.597656 222.246094 320.515625 188.921875 320.515625 152.113281 C 320.515625 115.304688 305.597656 81.984375 281.476562 57.867188 " fill-opacity="1" fill-rule="nonzero"/></g><g fill="#000000" fill-opacity="1"><g transform="translate(21.02175, 329.503927)"><g><path d="M 9.0625 0.265625 C 7.132812 0.0859375 4.878906 0 2.296875 0 L -0.375 0 L 14.296875 -41.09375 C 14.941406 -42.9375 15.265625 -44.007812 15.265625 -44.3125 C 15.265625 -44.613281 15.253906 -44.800781 15.234375 -44.875 L 15.265625 -44.9375 C 16.734375 -44.875 18.285156 -44.84375 19.921875 -44.84375 C 21.273438 -44.84375 22.894531 -44.863281 24.78125 -44.90625 L 24.8125 -44.84375 C 24.769531 -44.75 24.75 -44.625 24.75 -44.46875 C 24.75 -44.039062 25.082031 -42.90625 25.75 -41.0625 L 40.734375 0.09375 C 40.273438 0.0703125 39.742188 0.0625 39.140625 0.0625 C 39.140625 0.0625 38.554688 0.0390625 37.390625 0 C 36.828125 0 36.320312 0 35.875 0 L 30.640625 0 L 27.484375 -9.703125 L 12.234375 -9.703125 Z M 24.84375 -17.796875 L 19.75 -33.484375 L 14.796875 -17.796875 Z M 24.84375 -17.796875 "/></g></g></g><g fill="#000000" fill-opacity="1"><g transform="translate(61.377805, 329.503927)"><g><path d="M 32.875 -42.34375 L 32.234375 -32.4375 L 32 -32.359375 C 30.332031 -34.859375 27.5 -36.476562 23.5 -37.21875 C 22.238281 -37.46875 21.03125 -37.59375 19.875 -37.59375 C 18.71875 -37.59375 17.726562 -37.488281 16.90625 -37.28125 C 16.082031 -37.082031 15.378906 -36.789062 14.796875 -36.40625 C 13.566406 -35.601562 12.953125 -34.550781 12.953125 -33.25 C 12.953125 -31.539062 13.488281 -30.257812 14.5625 -29.40625 C 15.914062 -28.363281 18.148438 -27.632812 21.265625 -27.21875 C 24.390625 -26.800781 26.894531 -26.234375 28.78125 -25.515625 C 30.675781 -24.796875 32.226562 -23.890625 33.4375 -22.796875 C 35.738281 -20.722656 36.890625 -17.800781 36.890625 -14.03125 C 36.890625 -9.082031 35.019531 -5.269531 31.28125 -2.59375 C 28.09375 -0.300781 24.070312 0.84375 19.21875 0.84375 C 15.300781 0.84375 11.4375 0.101562 7.625 -1.375 C 6.363281 -1.875 5.257812 -2.453125 4.3125 -3.109375 L 4.6875 -14.359375 L 4.828125 -14.46875 C 7.609375 -9.65625 12.179688 -7.25 18.546875 -7.25 C 23.054688 -7.25 26.046875 -8.335938 27.515625 -10.515625 C 28.003906 -11.253906 28.25 -12.078125 28.25 -12.984375 C 28.25 -13.898438 28.101562 -14.65625 27.8125 -15.25 C 27.519531 -15.851562 27.035156 -16.367188 26.359375 -16.796875 C 25.054688 -17.648438 22.863281 -18.222656 19.78125 -18.515625 C 16.707031 -18.804688 14.191406 -19.351562 12.234375 -20.15625 C 10.285156 -20.96875 8.722656 -21.96875 7.546875 -23.15625 C 5.441406 -25.3125 4.390625 -28.328125 4.390625 -32.203125 C 4.390625 -36.203125 5.789062 -39.4375 8.59375 -41.90625 C 11.445312 -44.425781 15.296875 -45.6875 20.140625 -45.6875 C 24.984375 -45.6875 29.226562 -44.570312 32.875 -42.34375 Z M 32.875 -42.34375 "/></g></g></g><g fill="#000000" fill-opacity="1"><g transform="translate(101.599002, 329.503927)"><g><path d="M 21.984375 0.203125 C 20.898438 0.0664062 18.125 0 13.65625 0 L 12.578125 0 L 12.578125 -37.28125 L 5.90625 -37.28125 C 3.925781 -37.28125 2.753906 -37.179688 2.390625 -36.984375 C 2.035156 -36.785156 1.753906 -36.601562 1.546875 -36.4375 L 1.453125 -36.484375 L 1.453125 -45.109375 L 1.546875 -45.203125 C 2.285156 -44.960938 4.285156 -44.84375 7.546875 -44.84375 L 28.6875 -44.84375 C 30.664062 -44.84375 31.832031 -44.941406 32.1875 -45.140625 C 32.550781 -45.347656 32.835938 -45.53125 33.046875 -45.6875 L 33.140625 -45.65625 L 33.140625 -37.015625 L 33.046875 -36.921875 C 32.296875 -37.160156 30.289062 -37.28125 27.03125 -37.28125 L 21.984375 -37.28125 Z M 21.984375 0.203125 "/></g></g></g><g fill="#000000" fill-opacity="1"><g transform="translate(136.189897, 329.503927)"><g><path d="M 20.296875 -17.4375 C 19.617188 -17.382812 18.894531 -17.359375 18.125 -17.359375 C 17.363281 -17.359375 16.234375 -17.414062 14.734375 -17.53125 L 14.734375 0 L 5.796875 0 L 5.796875 -45.078125 C 8.941406 -45.484375 12.804688 -45.6875 17.390625 -45.6875 C 23.640625 -45.6875 28.296875 -44.53125 31.359375 -42.21875 C 34.429688 -39.914062 35.96875 -36.363281 35.96875 -31.5625 C 35.96875 -27.820312 34.566406 -24.628906 31.765625 -21.984375 C 30.835938 -21.128906 29.78125 -20.382812 28.59375 -19.75 L 35.46875 -5.265625 C 36.8125 -2.273438 37.84375 -0.5 38.5625 0.0625 L 38.40625 0.234375 C 36.21875 -0.117188 32.789062 -0.109375 28.125 0.265625 Z M 18.03125 -37.71875 C 16.882812 -37.71875 15.785156 -37.664062 14.734375 -37.5625 L 14.734375 -24.671875 C 15.835938 -24.515625 17.128906 -24.4375 18.609375 -24.4375 C 20.085938 -24.4375 21.332031 -24.566406 22.34375 -24.828125 C 23.363281 -25.085938 24.242188 -25.488281 24.984375 -26.03125 C 26.578125 -27.21875 27.375 -29.003906 27.375 -31.390625 C 27.375 -33.773438 26.539062 -35.445312 24.875 -36.40625 C 23.332031 -37.28125 21.050781 -37.71875 18.03125 -37.71875 Z M 18.03125 -37.71875 "/></g></g></g><g fill="#000000" fill-opacity="1"><g transform="translate(176.411094, 329.503927)"><g><path d="M 9.46875 -5.328125 C 7.425781 -7.285156 5.8125 -9.632812 4.625 -12.375 C 3.445312 -15.113281 2.859375 -18.117188 2.859375 -21.390625 C 2.859375 -24.660156 3.410156 -27.753906 4.515625 -30.671875 C 5.617188 -33.597656 7.191406 -36.171875 9.234375 -38.390625 C 11.285156 -40.617188 13.757812 -42.390625 16.65625 -43.703125 C 19.550781 -45.023438 22.796875 -45.6875 26.390625 -45.6875 C 32.597656 -45.6875 37.828125 -43.726562 42.078125 -39.8125 C 46.617188 -35.632812 48.890625 -29.992188 48.890625 -22.890625 C 48.890625 -16.015625 46.550781 -10.296875 41.875 -5.734375 C 39 -2.921875 35.570312 -0.988281 31.59375 0.0625 C 29.632812 0.582031 27.34375 0.84375 24.71875 0.84375 C 22.101562 0.84375 19.421875 0.304688 16.671875 -0.765625 C 13.921875 -1.847656 11.519531 -3.367188 9.46875 -5.328125 Z M 12.234375 -21.84375 C 12.234375 -19.757812 12.582031 -17.835938 13.28125 -16.078125 C 13.976562 -14.328125 14.945312 -12.820312 16.1875 -11.5625 C 18.8125 -8.90625 22.191406 -7.578125 26.328125 -7.578125 C 30.265625 -7.578125 33.421875 -8.847656 35.796875 -11.390625 C 38.234375 -14.023438 39.453125 -17.613281 39.453125 -22.15625 C 39.453125 -26.425781 38.289062 -29.988281 35.96875 -32.84375 C 33.476562 -35.894531 30.0625 -37.421875 25.71875 -37.421875 C 21.519531 -37.421875 18.179688 -35.867188 15.703125 -32.765625 C 13.390625 -29.867188 12.234375 -26.226562 12.234375 -21.84375 Z M 12.234375 -21.84375 "/></g></g></g><g fill="#000000" fill-opacity="1"><g transform="translate(228.162588, 329.503927)"><g><path d="M 14.90625 0.203125 C 13.820312 0.0664062 11.742188 0 8.671875 0 L 5.96875 0 L 5.96875 -44.96875 C 7.40625 -44.882812 8.988281 -44.84375 10.71875 -44.84375 C 12.445312 -44.84375 13.671875 -44.929688 14.390625 -45.109375 L 25.71875 -25.859375 L 36.609375 -45.109375 C 37.328125 -44.929688 38.695312 -44.84375 40.71875 -44.84375 C 42.75 -44.84375 44.484375 -44.882812 45.921875 -44.96875 L 45.921875 0 L 43.21875 0 C 40.144531 0 38.066406 0.0664062 36.984375 0.203125 L 36.984375 -30 L 25.953125 -10.28125 L 14.90625 -28.421875 Z M 14.90625 0.203125 "/></g></g></g><g fill="#000000" fill-opacity="1"><g transform="translate(280.048941, 329.503927)"><g><path d="M 28.359375 -8.09375 C 29.742188 -8.09375 30.707031 -8.226562 31.25 -8.5 L 31.390625 -8.46875 L 31.046875 0 L 5.796875 0 L 5.796875 -45.078125 C 6.398438 -45.035156 7.078125 -45 7.828125 -44.96875 L 10.1875 -44.90625 C 11.757812 -44.863281 13.46875 -44.84375 15.3125 -44.84375 C 20.457031 -44.84375 25.546875 -44.929688 30.578125 -45.109375 C 30.328125 -43.128906 30.203125 -40.488281 30.203125 -37.1875 C 30.203125 -36.820312 30.226562 -36.550781 30.28125 -36.375 L 30.203125 -36.28125 C 29.035156 -36.613281 27.375 -36.78125 25.21875 -36.78125 L 14.59375 -36.78125 L 14.59375 -28.1875 L 22.59375 -28.1875 C 25.0625 -28.1875 26.539062 -28.253906 27.03125 -28.390625 L 27.140625 -20.0625 C 26.054688 -20.175781 24.660156 -20.234375 22.953125 -20.234375 L 14.59375 -20.234375 L 14.59375 -8.09375 Z M 28.359375 -8.09375 "/></g></g></g><g fill="#000000" fill-opacity="1"><g transform="translate(314.639836, 329.503927)"><g><path d="M 20.296875 -17.4375 C 19.617188 -17.382812 18.894531 -17.359375 18.125 -17.359375 C 17.363281 -17.359375 16.234375 -17.414062 14.734375 -17.53125 L 14.734375 0 L 5.796875 0 L 5.796875 -45.078125 C 8.941406 -45.484375 12.804688 -45.6875 17.390625 -45.6875 C 23.640625 -45.6875 28.296875 -44.53125 31.359375 -42.21875 C 34.429688 -39.914062 35.96875 -36.363281 35.96875 -31.5625 C 35.96875 -27.820312 34.566406 -24.628906 31.765625 -21.984375 C 30.835938 -21.128906 29.78125 -20.382812 28.59375 -19.75 L 35.46875 -5.265625 C 36.8125 -2.273438 37.84375 -0.5 38.5625 0.0625 L 38.40625 0.234375 C 36.21875 -0.117188 32.789062 -0.109375 28.125 0.265625 Z M 18.03125 -37.71875 C 16.882812 -37.71875 15.785156 -37.664062 14.734375 -37.5625 L 14.734375 -24.671875 C 15.835938 -24.515625 17.128906 -24.4375 18.609375 -24.4375 C 20.085938 -24.4375 21.332031 -24.566406 22.34375 -24.828125 C 23.363281 -25.085938 24.242188 -25.488281 24.984375 -26.03125 C 26.578125 -27.21875 27.375 -29.003906 27.375 -31.390625 C 27.375 -33.773438 26.539062 -35.445312 24.875 -36.40625 C 23.332031 -37.28125 21.050781 -37.71875 18.03125 -37.71875 Z M 18.03125 -37.71875 "/></g></g></g></svg>